<?xml version="1.0" encoding="utf-8"?>
<!-- Generator: Adobe Illustrator 28.0.0, SVG Export Plug-In . SVG Version: 6.00 Build 0)  -->
<svg version="1.1" id="Capa_1" xmlns="http://www.w3.org/2000/svg" xmlns:xlink="http://www.w3.org/1999/xlink" x="0px" y="0px"
	 viewBox="0 0 4500 4500" style="enable-background:new 0 0 4500 4500;" xml:space="preserve">
<style type="text/css">
	.st0{fill:#5B4696;}
	.st1{fill:#FFFFFF;}
	.st2{fill:none;}
</style>
<path class="st0" d="M2928.89,1311.11c-453.98,0-907.95,0-1361.93,0c-144.37,126.86-288.75,253.72-433.12,380.59
	c725.08,0,1450.16,0,2175.24,0C3182.34,1564.84,3055.62,1437.97,2928.89,1311.11z"/>
<rect x="941.98" y="1797.57" class="st0" width="2564.4" height="385"/>
<rect x="1186.53" y="1855.52" transform="matrix(0.8276 0.5613 -0.5613 0.8276 1330.4396 -351.5871)" class="st1" width="102.1" height="269.1"/>
<rect x="1395.6" y="1855.52" transform="matrix(0.8276 0.5613 -0.5613 0.8276 1366.4838 -468.942)" class="st1" width="102.1" height="269.1"/>
<rect x="1607.35" y="1855.52" transform="matrix(0.8276 0.5613 -0.5613 0.8276 1402.9901 -587.8017)" class="st1" width="102.1" height="269.1"/>
<rect x="1847.05" y="1855.52" transform="matrix(0.8276 0.5613 -0.5613 0.8276 1444.3162 -722.3535)" class="st1" width="102.1" height="269.1"/>
<rect x="2086.76" y="1855.52" transform="matrix(0.8276 0.5613 -0.5613 0.8276 1485.6421 -856.9053)" class="st1" width="102.1" height="269.1"/>
<rect x="3063.64" y="1901.04" class="st1" width="226.19" height="178.06"/>
<g>
	<ellipse class="st0" cx="3263.38" cy="2821.06" rx="532.39" ry="351.72"/>
	<polygon class="st1" points="3027.4,2921.06 3384.25,2550.38 3270.57,2758.99 3520.94,2710.72 3154.02,3103.81 3310.86,2827.09 	
		"/>
</g>
<path class="st2" d="M2671.35,2692.71c83.31-158.31,319.54-272.43,597.84-272.43c83.93,0,163.96,10.36,237.19,29.18"/>
<path class="st2" d="M2644.28,2767.3c-3.41,16.84-5.18,34.02-5.18,51.47c0,149.51,130.22,279.8,322.82,347.97"/>
<path class="st0" d="M3506.38,2449.46v-156.19H941.98v399.45h1729.37C2671.35,2692.71,2850.27,2294.45,3506.38,2449.46z"/>
<path class="st0" d="M2644.28,2767.3H939.25v399.45h2022.66C2611.55,3100.2,2644.28,2767.3,2644.28,2767.3z"/>
<rect x="1157.23" y="2340.38" transform="matrix(0.8276 0.5613 -0.5613 0.8276 1597.5538 -251.5503)" class="st1" width="102.1" height="269.1"/>
<rect x="1366.3" y="2340.38" transform="matrix(0.8276 0.5613 -0.5613 0.8276 1633.598 -368.9052)" class="st1" width="102.1" height="269.1"/>
<rect x="1578.05" y="2340.38" transform="matrix(0.8276 0.5613 -0.5613 0.8276 1670.1044 -487.7649)" class="st1" width="102.1" height="269.1"/>
<rect x="1817.76" y="2340.38" transform="matrix(0.8276 0.5613 -0.5613 0.8276 1711.4304 -622.3167)" class="st1" width="102.1" height="269.1"/>
<rect x="2057.46" y="2340.38" transform="matrix(0.8276 0.5613 -0.5613 0.8276 1752.7565 -756.8685)" class="st1" width="102.1" height="269.1"/>
<rect x="1127.94" y="2808.86" transform="matrix(0.8276 0.5613 -0.5613 0.8276 1855.4738 -154.3375)" class="st1" width="102.1" height="269.1"/>
<rect x="1337.01" y="2808.86" transform="matrix(0.8276 0.5613 -0.5613 0.8276 1891.5179 -271.6924)" class="st1" width="102.1" height="269.1"/>
<rect x="1548.76" y="2808.86" transform="matrix(0.8276 0.5613 -0.5613 0.8276 1928.0243 -390.5521)" class="st1" width="102.1" height="269.1"/>
<rect x="1788.46" y="2808.86" transform="matrix(0.8276 0.5613 -0.5613 0.8276 1969.3503 -525.1039)" class="st1" width="102.1" height="269.1"/>
<rect x="2028.16" y="2808.86" transform="matrix(0.8276 0.5613 -0.5613 0.8276 2010.6763 -659.6557)" class="st1" width="102.1" height="269.1"/>
</svg>
